<?xml version="1.0" encoding="UTF-8" standalone="no"?>
<svg
   xmlns:dc="http://purl.org/dc/elements/1.1/"
   xmlns:cc="http://creativecommons.org/ns#"
   xmlns:rdf="http://www.w3.org/1999/02/22-rdf-syntax-ns#"
   xmlns:svg="http://www.w3.org/2000/svg"
   xmlns="http://www.w3.org/2000/svg"
   xmlns:sodipodi="http://sodipodi.sourceforge.net/DTD/sodipodi-0.dtd"
   xmlns:inkscape="http://www.inkscape.org/namespaces/inkscape"
   version="1.1"
   id="svg2"
   xml:space="preserve"
   width="767.14667"
   height="227.08"
   viewBox="0 0 767.14667 227.08"
   sodipodi:docname="Söderlunds LOGO svart LIGGANDE 24aug 2020.eps"><metadata
     id="metadata8"><rdf:RDF><cc:Work
         rdf:about=""><dc:format>image/svg+xml</dc:format><dc:type
           rdf:resource="http://purl.org/dc/dcmitype/StillImage" /></cc:Work></rdf:RDF></metadata><defs
     id="defs6" /><sodipodi:namedview
     pagecolor="#ffffff"
     bordercolor="#666666"
     borderopacity="1"
     objecttolerance="10"
     gridtolerance="10"
     guidetolerance="10"
     inkscape:pageopacity="0"
     inkscape:pageshadow="2"
     inkscape:window-width="640"
     inkscape:window-height="480"
     id="namedview4" /><g
     id="g10"
     inkscape:groupmode="layer"
     inkscape:label="ink_ext_XXXXXX"
     transform="matrix(1.3333333,0,0,-1.3333333,0,227.08)"><g
       id="g12"
       transform="scale(0.1)"><path
         d="m 2021.34,596.301 c 0,18.277 15.65,32.898 59.01,32.898 31.87,0 66.36,-9.39 101.32,-28.211 l 31.9,76.801 c -36.06,20.891 -85.15,31.863 -132.71,31.863 -108.65,0 -161.94,-53.293 -161.94,-118.582 0,-135.808 207.93,-93.519 207.93,-151.48 0,-17.762 -16.71,-29.77 -59.57,-29.77 -42.3,0 -88.28,14.621 -120.66,36.039 l -33.94,-76.281 c 34.45,-24.019 94.02,-40.219 154.1,-40.219 108.65,0 161.94,54.332 161.94,118.051 0,134.789 -207.38,93 -207.38,148.891"
         style="fill:#231f20;fill-opacity:1;fill-rule:nonzero;stroke:none"
         id="path14" /><path
         d="m 2460.41,415.031 c -55.37,0 -98.73,41.258 -98.73,104.489 0,63.191 43.36,104.468 98.73,104.468 55.37,0 98.72,-41.277 98.72,-104.468 0,-63.231 -43.35,-104.489 -98.72,-104.489 z m 0,294.621 c -117.01,0 -203.18,-80.453 -203.18,-190.132 0,-109.7 86.17,-190.161 203.18,-190.161 117.01,0 203.22,80.461 203.22,190.161 0,109.679 -86.21,190.132 -203.22,190.132"
         style="fill:#231f20;fill-opacity:1;fill-rule:nonzero;stroke:none"
         id="path16" /><path
         d="m 2515.78,731.59 c 23.5,0 41.27,16.199 41.27,40.738 0,24.57 -17.77,41.285 -41.27,41.285 -23.51,0 -41.25,-16.715 -41.25,-41.285 0,-24.539 17.74,-40.738 41.25,-40.738"
         style="fill:#231f20;fill-opacity:1;fill-rule:nonzero;stroke:none"
         id="path18" /><path
         d="m 2405.04,731.59 c 23.51,0 41.28,16.199 41.28,40.738 0,24.57 -17.77,41.285 -41.28,41.285 -23.5,0 -41.28,-16.715 -41.28,-41.285 0,-24.539 17.78,-40.738 41.28,-40.738"
         style="fill:#231f20;fill-opacity:1;fill-rule:nonzero;stroke:none"
         id="path20" /><path
         d="m 2886.41,419.211 h -65.29 v 200.598 h 65.29 c 62.16,0 103.95,-37.098 103.95,-100.289 0,-63.231 -41.79,-100.309 -103.95,-100.309 z m 4.16,283.141 H 2717.68 V 336.68 h 172.89 c 121.21,0 204.29,70.511 204.29,182.84 0,112.3 -83.08,182.832 -204.29,182.832"
         style="fill:#231f20;fill-opacity:1;fill-rule:nonzero;stroke:none"
         id="path22" /><path
         d="m 3442.49,416.609 h -191.21 v 66.86 h 128.58 l 33.87,77.312 h -162.45 v 61.641 h 144.83 l 39.56,79.93 H 3148.91 V 336.68 h 249 l 44.58,79.929"
         style="fill:#231f20;fill-opacity:1;fill-rule:nonzero;stroke:none"
         id="path24" /><path
         d="m 3660.61,513.77 h -57.44 v 107.082 h 57.44 c 42.85,0 64.28,-19.864 64.28,-53.793 0,-33.438 -21.43,-53.289 -64.28,-53.289 z m 168.73,53.289 c 0,83.57 -62.66,135.293 -162.45,135.293 H 3499.73 V 336.68 h 103.44 v 97.148 h 56.38 l 66.36,-97.148 h 110.73 l -78.87,114.929 c 45.44,21.93 71.57,61.629 71.57,115.45"
         style="fill:#231f20;fill-opacity:1;fill-rule:nonzero;stroke:none"
         id="path26" /><path
         d="M 4163.92,418.691 H 3989.46 V 702.352 H 3886.03 V 336.68 h 277.89 v 82.011"
         style="fill:#231f20;fill-opacity:1;fill-rule:nonzero;stroke:none"
         id="path28" /><path
         d="m 4439.56,502.801 c 0,-62.692 -26.13,-87.77 -68.98,-87.77 -43.32,0 -69.45,25.078 -69.45,87.77 V 702.352 H 4197.69 V 499.648 c 0,-109.179 63.72,-170.289 171.87,-170.289 108.15,0 171.87,61.11 171.87,170.289 V 702.352 H 4439.56 V 502.801"
         style="fill:#231f20;fill-opacity:1;fill-rule:nonzero;stroke:none"
         id="path30" /><path
         d="m 4712.49,531.52 161.44,-194.84 h 85.15 V 702.352 H 4857.72 V 507.488 l -161.39,194.864 h -85.15 V 336.68 h 101.31 v 194.84"
         style="fill:#231f20;fill-opacity:1;fill-rule:nonzero;stroke:none"
         id="path32" /><path
         d="m 5200.7,419.211 h -65.3 v 200.598 h 65.3 c 62.16,0 103.94,-37.098 103.94,-100.289 0,-63.231 -41.78,-100.309 -103.94,-100.309 z m 208.43,100.309 c 0,112.3 -83.06,182.832 -204.27,182.832 H 5031.97 V 336.68 h 172.89 c 121.21,0 204.27,70.511 204.27,182.84"
         style="fill:#231f20;fill-opacity:1;fill-rule:nonzero;stroke:none"
         id="path34" /><path
         d="m 5546.21,596.301 c 0,18.277 15.66,32.898 59.02,32.898 31.86,0 66.36,-9.39 101.32,-28.211 l 31.9,76.801 c -36.06,20.891 -85.15,31.863 -132.7,31.863 -108.67,0 -161.95,-53.293 -161.95,-118.582 0,-135.808 207.93,-93.519 207.93,-151.48 0,-17.762 -16.72,-29.77 -59.57,-29.77 -42.29,0 -88.29,14.621 -120.65,36.039 l -33.95,-76.281 c 34.46,-24.019 94.02,-40.219 154.09,-40.219 108.66,0 161.95,54.332 161.95,118.051 0,134.789 -207.39,93 -207.39,148.891"
         style="fill:#231f20;fill-opacity:1;fill-rule:nonzero;stroke:none"
         id="path36" /><path
         d="m 2014.73,75.9297 h -42.05 v 77.6723 h 42.05 c 31.66,0 48.23,-14.102 48.23,-38.832 0,-24.7387 -16.57,-38.8403 -48.23,-38.8403 z m 0.74,99.1913 h -67.52 V 1.98047 h 24.73 V 54.4219 h 42.79 c 45.02,0 72.23,22.75 72.23,60.3481 0,37.601 -27.21,60.351 -72.23,60.351"
         style="fill:#231f20;fill-opacity:1;fill-rule:nonzero;stroke:none"
         id="path38" /><path
         d="m 2235.39,175.121 h -24.74 V 1.98047 h 118.48 V 23.5 h -93.74 v 151.621"
         style="fill:#231f20;fill-opacity:1;fill-rule:nonzero;stroke:none"
         id="path40" /><path
         d="m 2471.87,65.0508 37.35,84.8402 37.35,-84.8402 z M 2497.1,175.121 2418.69,1.98047 h 25.48 l 19.04,43.28123 h 92.02 l 19.04,-43.28123 h 25.97 L 2521.59,175.121 h -24.49"
         style="fill:#231f20;fill-opacity:1;fill-rule:nonzero;stroke:none"
         id="path42" /><path
         d="m 2678.93,153.602 h 59.36 V 1.98047 h 24.49 V 153.602 h 59.36 v 21.519 h -143.21 v -21.519"
         style="fill:#231f20;fill-opacity:1;fill-rule:nonzero;stroke:none"
         id="path44" /><path
         d="m 2913.18,153.602 h 59.36 V 1.98047 h 24.49 V 153.602 h 59.36 v 21.519 h -143.21 v -21.519"
         style="fill:#231f20;fill-opacity:1;fill-rule:nonzero;stroke:none"
         id="path46" /><path
         d="m 3180.34,128.621 c 0,15.09 12.61,27.449 42.05,27.449 15.33,0 32.4,-4.441 47.49,-14.09 l 8.16,19.782 c -14.34,9.898 -35.37,15.34 -55.65,15.34 -45.51,0 -66.29,-22.762 -66.29,-49.473 0,-64.3087 104.87,-37.5977 104.87,-79.8907 0,-15.0899 -12.86,-26.7188 -42.79,-26.7188 -22.26,0 -44.27,8.4102 -57.13,20.0391 l -9.16,-19.2969 C 3165.75,8.89844 3191.71,0 3218.18,0 c 45.76,0 67.03,22.7617 67.03,49.2188 0,63.5702 -104.87,37.1015 -104.87,79.4022"
         style="fill:#231f20;fill-opacity:1;fill-rule:nonzero;stroke:none"
         id="path48" /><path
         d="m 3495.48,193.422 c 6.93,0 12.61,5.199 12.61,12.617 0,7.422 -5.68,12.859 -12.61,12.859 -6.93,0 -12.62,-5.437 -12.62,-12.859 0,-7.418 5.69,-12.617 12.62,-12.617"
         style="fill:#231f20;fill-opacity:1;fill-rule:nonzero;stroke:none"
         id="path50" /><path
         d="m 3436.86,206.039 c 0,-7.418 5.68,-12.617 12.62,-12.617 6.92,0 12.6,5.199 12.6,12.617 0,7.422 -5.68,12.859 -12.6,12.859 -6.94,0 -12.62,-5.437 -12.62,-12.859"
         style="fill:#231f20;fill-opacity:1;fill-rule:nonzero;stroke:none"
         id="path52" /><path
         d="m 3434.88,65.0508 37.35,84.8402 37.34,-84.8402 z M 3460.11,175.121 3381.7,1.98047 h 25.47 l 19.05,43.28123 h 92.02 l 19.04,-43.28123 h 25.98 L 3484.59,175.121 h -24.48"
         style="fill:#231f20;fill-opacity:1;fill-rule:nonzero;stroke:none"
         id="path54" /><path
         d="m 3641.93,153.602 h 59.36 V 1.98047 h 24.49 V 153.602 h 59.36 v 21.519 h -143.21 v -21.519"
         style="fill:#231f20;fill-opacity:1;fill-rule:nonzero;stroke:none"
         id="path56" /><path
         d="m 3876.19,153.602 h 59.36 V 1.98047 h 24.49 V 153.602 h 59.36 v 21.519 h -143.21 v -21.519"
         style="fill:#231f20;fill-opacity:1;fill-rule:nonzero;stroke:none"
         id="path58" /><path
         d="m 4257.12,46 -103.88,129.121 h -20.29 V 1.98047 h 24.74 V 131.09 L 4261.58,1.98047 h 20.28 V 175.121 h -24.74 V 46"
         style="fill:#231f20;fill-opacity:1;fill-rule:nonzero;stroke:none"
         id="path60" /><path
         d="m 4420.39,1.98047 h 24.74 V 175.121 h -24.74 V 1.98047"
         style="fill:#231f20;fill-opacity:1;fill-rule:nonzero;stroke:none"
         id="path62" /><path
         d="m 4707.83,46 -103.89,129.121 h -20.28 V 1.98047 h 24.73 V 131.09 L 4712.28,1.98047 h 20.28 V 175.121 h -24.73 V 46"
         style="fill:#231f20;fill-opacity:1;fill-rule:nonzero;stroke:none"
         id="path64" /><path
         d="m 4950.76,155.078 c 19.54,0 35.86,-6.18 50.21,-20.027 l 15.33,15.34 c -15.83,17.55 -39.08,26.711 -66.53,26.711 -53.67,0 -92.75,-37.352 -92.75,-88.5512 C 4857.02,37.3516 4896.1,0 4949.27,0 c 24.24,0 48.23,7.42188 65.55,22.0195 v 67.5196 h -23.74 V 33.1406 c -12.38,-7.9101 -25.98,-11.1211 -40.57,-11.1211 -39.82,0 -68.76,28.4297 -68.76,66.5313 0,38.5782 28.94,66.5272 69.01,66.5272"
         style="fill:#231f20;fill-opacity:1;fill-rule:nonzero;stroke:none"
         id="path66" /><path
         d="m 5328.73,65.0508 37.36,84.8402 37.34,-84.8402 z M 5353.97,175.121 5275.56,1.98047 h 25.47 l 19.05,43.28123 h 92.01 l 19.05,-43.28123 h 25.97 L 5378.45,175.121 h -24.48"
         style="fill:#231f20;fill-opacity:1;fill-rule:nonzero;stroke:none"
         id="path68" /><path
         d="m 5651.06,22.0195 h -56.9 v 57.6211 h 56.9 c 27.45,0 42.29,-8.9023 42.29,-28.9297 0,-20.039 -14.84,-28.6914 -42.29,-28.6914 z m -56.9,133.0585 h 50.72 c 25.22,0 39.57,-9.387 39.57,-27.699 0,-18.297 -14.35,-27.6993 -39.57,-27.6993 h -50.72 z m 91.77,-63.3163 c 13.6,6.6797 23.25,19.7893 23.25,38.5903 0,27.949 -22.26,44.769 -62.09,44.769 h -77.66 V 1.98047 h 82.61 c 43.78,0 66.29,17.07033 66.29,46.75003 0,23 -12.86,37.5898 -32.4,43.0312"
         style="fill:#231f20;fill-opacity:1;fill-rule:nonzero;stroke:none"
         id="path70" /><path
         d="m 623.047,369.199 c -9.231,26.801 -24.852,51.871 -46.813,75.172 -21.988,23.289 -50.992,45.25 -87.015,65.918 -36.047,20.641 -80.457,41.09 -133.18,61.332 -18.457,6.129 -36.07,12.738 -52.769,19.77 -16.68,7.019 -31.43,14.718 -44.149,23.078 -12.777,8.359 -22.871,17.59 -30.328,27.703 -7.492,10.098 -11.223,21.289 -11.223,33.617 0,27.231 10.317,48.133 30.981,62.625 20.668,14.52 49.457,21.777 86.39,21.777 20.192,0 39.985,-3.535 59.329,-10.558 19.324,-7.059 36.46,-14.512 51.425,-22.418 17.571,-9.68 34.731,-20.227 51.426,-31.645 l 113.406,142.403 c -14.949,13.195 -33.621,26.148 -56.043,38.91 -22.421,12.738 -46.379,23.933 -71.875,33.617 -25.496,9.66 -51.644,17.59 -78.433,23.742 -26.844,6.129 -52.102,9.231 -75.824,9.231 -43.973,0 -84.2,-6.828 -120.657,-20.43 C 171.195,909.395 139.98,890.508 114.07,866.336 88.1172,842.133 68.1172,813.586 54.0547,780.609 39.9883,747.641 32.9688,712.254 32.9688,674.469 c 0,-36.918 6.3593,-69.438 19.1132,-97.59 12.7305,-28.129 30.7539,-53.18 54.063,-75.149 23.289,-21.98 50.773,-41.109 82.406,-57.359 31.668,-16.293 65.933,-31.441 102.871,-45.492 31.648,-12.32 58.012,-23.969 79.109,-34.957 21.098,-10.981 37.582,-21.32 49.453,-30.981 11.871,-9.671 20.211,-18.691 25.043,-27.031 4.828,-8.371 7.278,-16.051 7.278,-23.07 0,-18.461 -3.985,-33.86 -11.871,-46.16 -7.93,-12.328 -18.043,-22.2 -30.329,-29.649 -12.347,-7.5 -25.953,-13 -40.898,-16.492 -14.945,-3.527 -29.891,-5.289 -44.84,-5.289 -17.586,0 -36.043,3.52 -55.371,10.559 -19.34,7.043 -37.82,15.589 -55.363,25.711 -17.613,10.089 -33.207,20.64 -46.832,31.64 -13.653,10.988 -23.528,20.449 -29.68,28.36 L 0,154.93 C 7.03125,147.02 19.7773,134.262 38.2344,116.691 56.7031,99.1094 77.8125,82.8398 101.531,67.9102 h -1.32 C 133.613,46.8086 169.223,30.5195 207.023,19.1094 244.824,7.69141 283.949,1.96875 324.367,1.96875 c 44.84,0 86.391,7.25 124.621,21.75005 38.239,14.5117 71.207,34.2929 98.91,59.3515 27.688,25.0387 49.434,54.7187 65.27,88.9887 15.809,34.293 23.738,70.773 23.738,109.461 0,31.652 -4.633,60.871 -13.859,87.679"
         style="fill:#231f20;fill-opacity:1;fill-rule:nonzero;stroke:none"
         id="path72" /><path
         d="m 0,943.473 124.008,117.197 2.637,518.42 H 1564.61 V 122.648 H 757.133 L 636.906,0.96875 H 1696.54 V 1703.1 L 0,1703.1 V 943.473"
         style="fill:#231f20;fill-opacity:1;fill-rule:nonzero;stroke:none"
         id="path74" /></g></g></svg>
