<?xml version="1.0" encoding="UTF-8" standalone="no"?>
<svg
   xmlns:dc="http://purl.org/dc/elements/1.1/"
   xmlns:cc="http://creativecommons.org/ns#"
   xmlns:rdf="http://www.w3.org/1999/02/22-rdf-syntax-ns#"
   xmlns:svg="http://www.w3.org/2000/svg"
   xmlns="http://www.w3.org/2000/svg"
   xmlns:sodipodi="http://sodipodi.sourceforge.net/DTD/sodipodi-0.dtd"
   xmlns:inkscape="http://www.inkscape.org/namespaces/inkscape"
   version="1.1"
   id="svg2"
   xml:space="preserve"
   width="828.01331"
   height="612.98669"
   viewBox="0 0 828.01331 612.98669"
   sodipodi:docname="Söderlunds LOGO svart STÅENDE 24aug 2020.eps"><metadata
     id="metadata8"><rdf:RDF><cc:Work
         rdf:about=""><dc:format>image/svg+xml</dc:format><dc:type
           rdf:resource="http://purl.org/dc/dcmitype/StillImage" /></cc:Work></rdf:RDF></metadata><defs
     id="defs6" /><sodipodi:namedview
     pagecolor="#ffffff"
     bordercolor="#666666"
     borderopacity="1"
     objecttolerance="10"
     gridtolerance="10"
     guidetolerance="10"
     inkscape:pageopacity="0"
     inkscape:pageshadow="2"
     inkscape:window-width="640"
     inkscape:window-height="480"
     id="namedview4" /><g
     id="g10"
     inkscape:groupmode="layer"
     inkscape:label="ink_ext_XXXXXX"
     transform="matrix(1.3333333,0,0,-1.3333333,0,612.98667)"><g
       id="g12"
       transform="scale(0.1)"><path
         d="M 0,597.531 54.8789,720.859 C 107.219,686.219 181.57,662.59 249.965,662.59 c 69.281,0 96.308,19.422 96.308,48.121 0,93.738 -336.191,25.348 -336.191,244.93 0,105.559 86.1563,191.719 261.832,191.719 76.899,0 156.266,-17.73 214.57,-51.52 L 434.898,971.68 c -56.523,30.42 -112.293,45.62 -163.804,45.62 -70.11,0 -95.418,-23.659 -95.418,-53.191 0,-90.379 335.297,-22.82 335.297,-240.75 C 510.973,620.34 424.813,532.5 249.141,532.5 152.008,532.5 55.6992,558.699 0,597.531"
         style="fill:#040606;fill-opacity:1;fill-rule:nonzero;stroke:none"
         id="path14" /><path
         d="m 908.418,1248.71 c 0,39.72 28.672,66.74 66.676,66.74 38.006,0 66.746,-27.02 66.746,-66.74 0,-39.68 -28.74,-65.88 -66.746,-65.88 -38.004,0 -66.676,26.2 -66.676,65.88 z m -179.105,0 c 0,39.72 28.742,66.74 66.746,66.74 38,0 66.742,-27.02 66.742,-66.74 0,-39.68 -28.742,-65.88 -66.742,-65.88 -38.004,0 -66.746,26.2 -66.746,65.88 z M 1045.2,839.941 c 0,102.18 -70.106,168.919 -159.626,168.919 -89.515,0 -159.621,-66.739 -159.621,-168.919 0,-102.203 70.106,-168.91 159.621,-168.91 89.52,0 159.626,66.707 159.626,168.91 z m -488.13,0 c 0,177.359 139.317,307.419 328.504,307.419 189.196,0 328.576,-130.06 328.576,-307.419 C 1214.15,662.59 1074.77,532.5 885.574,532.5 696.387,532.5 557.07,662.59 557.07,839.941"
         style="fill:#040606;fill-opacity:1;fill-rule:nonzero;stroke:none"
         id="path16" /><path
         d="m 1574.35,677.789 c 100.49,0 168.06,59.949 168.06,162.152 0,102.18 -67.57,162.159 -168.06,162.159 H 1468.78 V 677.789 Z m -272.81,457.771 h 279.53 c 195.98,0 330.29,-114.04 330.29,-295.619 0,-181.613 -134.31,-295.613 -330.29,-295.613 h -279.53 v 591.232"
         style="fill:#040606;fill-opacity:1;fill-rule:nonzero;stroke:none"
         id="path18" /><path
         d="m 2473.44,673.57 -72.08,-129.242 h -402.61 v 591.232 h 463.64 l -63.95,-129.24 h -234.17 v -99.672 h 262.66 L 2372.16,781.672 H 2164.27 V 673.57 h 309.17"
         style="fill:#040606;fill-opacity:1;fill-rule:nonzero;stroke:none"
         id="path20" /><path
         d="m 2826.09,1003.79 h -92.88 V 830.648 h 92.88 c 69.28,0 103.92,32.114 103.92,86.161 0,54.871 -34.64,86.981 -103.92,86.981 z m -1.72,-302.368 h -91.16 V 544.328 h -167.24 v 591.232 h 270.27 c 161.34,0 262.66,-83.61 262.66,-218.751 0,-87.008 -42.26,-151.188 -115.73,-186.649 l 127.52,-185.832 h -179.03 l -107.29,157.094"
         style="fill:#040606;fill-opacity:1;fill-rule:nonzero;stroke:none"
         id="path22" /><path
         d="m 3190.54,1135.56 h 167.24 V 676.93 h 282.07 V 544.328 h -449.31 v 591.232"
         style="fill:#040606;fill-opacity:1;fill-rule:nonzero;stroke:none"
         id="path24" /><path
         d="m 3694.45,807.852 v 327.708 h 167.23 V 812.922 c 0,-101.352 42.26,-141.891 112.3,-141.891 69.28,0 111.53,40.539 111.53,141.891 v 322.638 h 164.7 V 807.852 c 0,-176.543 -103.03,-275.352 -277.88,-275.352 -174.85,0 -277.88,98.809 -277.88,275.352"
         style="fill:#040606;fill-opacity:1;fill-rule:nonzero;stroke:none"
         id="path26" /><path
         d="M 4925.47,1135.56 V 544.328 H 4787.8 L 4526.79,859.359 V 544.328 h -163.81 v 591.232 h 137.68 L 4761.6,820.5 v 315.06 h 163.87"
         style="fill:#040606;fill-opacity:1;fill-rule:nonzero;stroke:none"
         id="path28" /><path
         d="m 5316.13,677.789 c 100.49,0 168.05,59.949 168.05,162.152 0,102.18 -67.56,162.159 -168.05,162.159 H 5210.56 V 677.789 Z m -272.81,457.771 h 279.53 c 195.97,0 330.29,-114.04 330.29,-295.619 0,-181.613 -134.32,-295.613 -330.29,-295.613 h -279.53 v 591.232"
         style="fill:#040606;fill-opacity:1;fill-rule:nonzero;stroke:none"
         id="path30" /><path
         d="m 5699.1,597.531 54.88,123.328 c 52.33,-34.64 126.69,-58.269 195.08,-58.269 69.28,0 96.32,19.422 96.32,48.121 0,93.738 -336.2,25.348 -336.2,244.93 0,105.559 86.16,191.719 261.83,191.719 76.9,0 156.26,-17.73 214.57,-51.52 L 6134,971.68 c -56.52,30.42 -112.3,45.62 -163.81,45.62 -70.11,0 -95.42,-23.659 -95.42,-53.191 0,-90.379 335.3,-22.82 335.3,-240.75 0,-103.019 -86.16,-190.859 -261.83,-190.859 -97.13,0 -193.44,26.199 -249.14,65.031"
         style="fill:#040606;fill-opacity:1;fill-rule:nonzero;stroke:none"
         id="path32" /><path
         d="m 242.984,185.578 c 0,39.992 -26.796,62.781 -77.988,62.781 H 97.0078 v -125.57 h 67.9882 c 51.192,0 77.988,22.789 77.988,62.789 z m 39.989,0 c 0,-60.789 -43.989,-97.5897 -116.778,-97.5897 H 97.0078 V 3.21094 H 57.0117 V 283.16 H 166.195 c 72.789,0 116.778,-36.789 116.778,-97.582"
         style="fill:#040606;fill-opacity:1;fill-rule:nonzero;stroke:none"
         id="path34" /><path
         d="m 481.758,283.16 h 39.996 V 38 h 151.57 V 3.21094 H 481.758 V 283.16"
         style="fill:#040606;fill-opacity:1;fill-rule:nonzero;stroke:none"
         id="path36" /><path
         d="m 1024.88,105.191 -60.388,137.18 -60.39,-137.18 z m 14,-31.9918 H 890.102 L 859.305,3.21094 H 818.113 L 944.891,283.16 h 39.597 L 1111.66,3.21094 h -41.99 l -30.79,69.98826"
         style="fill:#040606;fill-opacity:1;fill-rule:nonzero;stroke:none"
         id="path38" /><path
         d="m 1334.85,248.359 h -95.98 v 34.801 h 231.56 v -34.801 h -95.98 V 3.21094 h -39.6 V 248.359"
         style="fill:#040606;fill-opacity:1;fill-rule:nonzero;stroke:none"
         id="path40" /><path
         d="m 1713.6,248.359 h -95.98 v 34.801 h 231.56 V 248.359 H 1753.2 V 3.21094 h -39.6 V 248.359"
         style="fill:#040606;fill-opacity:1;fill-rule:nonzero;stroke:none"
         id="path42" /><path
         d="m 2003.57,35.1992 14.8,31.1992 C 2039.17,47.6016 2074.76,34 2110.76,34 c 48.39,0 69.19,18.8008 69.19,43.1914 0,68.3866 -169.57,25.1996 -169.57,129.1796 0,43.188 33.59,79.988 107.17,79.988 32.8,0 66.8,-8.8 89.99,-24.789 l -13.2,-32.011 c -24.39,15.613 -51.99,22.812 -76.79,22.812 -47.58,0 -67.98,-20 -67.98,-44.402 0,-68.391 169.57,-25.59 169.57,-128.3792 C 2219.14,36.8008 2184.75,0 2110.76,0 c -42.8,0 -84.79,14.4102 -107.19,35.1992"
         style="fill:#040606;fill-opacity:1;fill-rule:nonzero;stroke:none"
         id="path44" /><path
         d="m 2538.7,333.148 c 0,12 9.2,20.801 20.4,20.801 11.19,0 20.39,-8.801 20.39,-20.801 0,-11.988 -9.2,-20.386 -20.39,-20.386 -11.2,0 -20.4,8.398 -20.4,20.386 z m -74.39,0 c 0,12 9.2,20.801 20.4,20.801 11.2,0 20.4,-8.801 20.4,-20.801 0,-11.988 -9.2,-20.386 -20.4,-20.386 -11.2,0 -20.4,8.398 -20.4,20.386 z m 117.58,-227.957 -60.39,137.18 -60.39,-137.18 z m 14,-31.9918 H 2447.11 L 2416.32,3.21094 h -41.19 L 2501.9,283.16 h 39.6 L 2668.68,3.21094 h -42 l -30.79,69.98826"
         style="fill:#040606;fill-opacity:1;fill-rule:nonzero;stroke:none"
         id="path46" /><path
         d="m 2891.86,248.359 h -95.98 v 34.801 h 231.56 v -34.801 h -95.98 V 3.21094 h -39.6 V 248.359"
         style="fill:#040606;fill-opacity:1;fill-rule:nonzero;stroke:none"
         id="path48" /><path
         d="m 3270.62,248.359 h -95.99 v 34.801 h 231.57 v -34.801 h -95.99 V 3.21094 h -39.59 V 248.359"
         style="fill:#040606;fill-opacity:1;fill-rule:nonzero;stroke:none"
         id="path50" /><path
         d="M 3830.54,283.16 V 3.21094 h -32.79 L 3629.77,211.98 V 3.21094 h -39.99 V 283.16 h 32.79 L 3790.55,74.3984 V 283.16 h 39.99"
         style="fill:#040606;fill-opacity:1;fill-rule:nonzero;stroke:none"
         id="path52" /><path
         d="m 4054.53,283.16 h 39.99 V 3.21094 h -39.99 V 283.16"
         style="fill:#040606;fill-opacity:1;fill-rule:nonzero;stroke:none"
         id="path54" /><path
         d="M 4559.26,283.16 V 3.21094 h -32.79 L 4358.49,211.98 V 3.21094 H 4318.5 V 283.16 h 32.79 L 4519.27,74.3984 V 283.16 h 39.99"
         style="fill:#040606;fill-opacity:1;fill-rule:nonzero;stroke:none"
         id="path56" /><path
         d="m 4977.2,144.781 h 38.4 V 35.6016 C 4987.6,12.0117 4948.81,0 4909.61,0 c -85.98,0 -149.17,60.3906 -149.17,143.191 0,82.778 63.19,143.168 149.97,143.168 44.4,0 82,-14.789 107.59,-43.187 l -24.8,-24.801 c -23.2,22.399 -49.59,32.399 -81.18,32.399 -64.79,0 -111.59,-45.2 -111.59,-107.579 0,-61.5894 46.8,-107.5894 111.19,-107.5894 23.59,0 45.59,5.1992 65.58,18 v 91.1794"
         style="fill:#040606;fill-opacity:1;fill-rule:nonzero;stroke:none"
         id="path58" /><path
         d="m 5643.93,105.191 -60.39,137.18 -60.39,-137.18 z m 13.99,-31.9918 H 5509.16 L 5478.35,3.21094 h -41.19 L 5563.94,283.16 h 39.6 L 5730.72,3.21094 h -41.99 l -30.81,69.98826"
         style="fill:#040606;fill-opacity:1;fill-rule:nonzero;stroke:none"
         id="path60" /><path
         d="m 6112.67,82 c 0,32.391 -24,46.781 -68.39,46.781 h -91.99 V 35.6016 h 91.99 c 44.39,0 68.39,14 68.39,46.3984 z m -160.38,168.77 v -89.59 h 81.99 c 40.79,0 63.99,15.199 63.99,44.789 0,29.601 -23.2,44.801 -63.99,44.801 z M 6153.06,78.7891 c 0,-47.9883 -36.39,-75.57816 -107.19,-75.57816 H 5912.3 V 283.16 h 125.58 c 64.39,0 100.39,-27.199 100.39,-72.39 0,-30.399 -15.61,-51.59 -37.6,-62.391 31.59,-8.801 52.39,-32.391 52.39,-69.5899"
         style="fill:#040606;fill-opacity:1;fill-rule:nonzero;stroke:none"
         id="path62" /><path
         d="m 2257.98,1846.98 c -65.35,0 -128.61,9.24 -189.72,27.7 -61.12,18.46 -118.7,44.8 -172.7,78.91 h 2.13 c -38.35,24.13 -72.48,50.44 -102.34,78.87 -29.84,28.41 -50.45,49.04 -61.82,61.82 l 221.7,204.68 c 9.95,-12.78 25.92,-28.09 47.99,-45.85 22.03,-17.78 47.24,-34.84 75.72,-51.16 28.37,-16.36 58.24,-30.2 89.52,-41.58 31.24,-11.38 61.08,-17.06 89.52,-17.06 24.17,0 48.33,2.85 72.5,8.55 24.17,5.64 46.16,14.54 66.13,26.65 19.85,12.05 36.21,28.03 49.03,47.95 12.75,19.9 19.19,44.8 19.19,74.64 0,11.34 -3.96,23.78 -11.77,37.3 -7.81,13.48 -21.29,28.05 -40.48,43.71 -19.2,15.62 -45.85,32.32 -79.96,50.08 -34.11,17.76 -76.74,36.6 -127.91,56.53 -59.72,22.69 -115.13,47.21 -166.33,73.55 -51.13,26.27 -95.58,57.19 -133.23,92.74 -37.68,35.52 -66.83,76 -87.4,121.5 -20.63,45.5 -30.91,98.1 -30.91,157.78 0,61.08 11.35,118.31 34.1,171.62 22.73,53.3 55.07,99.46 97.03,138.59 41.89,39.08 92.36,69.62 151.38,91.69 58.94,21.99 123.98,33.03 195.07,33.03 38.36,0 79.19,-5.01 122.59,-14.92 43.32,-9.95 85.6,-22.77 126.82,-38.39 41.22,-15.66 79.96,-33.76 116.21,-54.36 36.25,-20.62 66.44,-41.57 90.6,-62.9 l -183.35,-230.24 c -27,18.45 -54.74,35.51 -83.14,51.16 -24.2,12.79 -51.9,24.84 -83.15,36.25 -31.27,11.35 -63.29,17.06 -95.93,17.06 -59.71,0 -106.26,-11.73 -139.67,-35.2 -33.41,-23.43 -50.09,-57.23 -50.09,-101.25 0,-19.93 6.03,-38.04 18.15,-54.36 12.04,-16.35 28.37,-31.28 49.03,-44.8 20.56,-13.51 44.41,-25.95 71.38,-37.3 27,-11.38 55.48,-22.06 85.31,-31.97 85.25,-32.71 157.05,-65.77 215.33,-99.15 58.25,-33.42 105.14,-68.93 140.69,-106.58 35.52,-37.69 60.77,-78.21 75.69,-121.53 14.92,-43.36 22.42,-90.61 22.42,-141.78 0,-62.55 -12.83,-121.53 -38.39,-176.97 -25.6,-55.41 -60.77,-103.39 -105.53,-143.88 -44.8,-40.53 -98.1,-72.5 -159.92,-95.97 -61.81,-23.43 -128.99,-35.16 -201.49,-35.16"
         style="fill:#040606;fill-opacity:1;fill-rule:nonzero;stroke:none"
         id="path64" /><path
         d="m 1934.03,3558.7 -200.5,-189.48 V 4597.4 H 4476.54 V 1845.37 H 2763.31 l 194.37,196.73 H 4263.24 V 4396.9 H 1938.3 l -4.27,-838.2"
         style="fill:#040606;fill-opacity:1;fill-rule:nonzero;stroke:none"
         id="path66" /></g></g></svg>
